<svg width="300" height="200" viewBox="0 0 300 200" fill="none" xmlns="http://www.w3.org/2000/svg">
<g clip-path="url(#clip0_60_2)">
<path d="M100 0C118.215 0 135.291 4.87112 150 13.3799C120.11 30.6705 100 62.9862 100 100C100 137.014 120.111 169.329 150 186.619C135.291 195.128 118.215 200 100 200C44.7715 200 0 155.228 0 100C0 44.7715 44.7715 0 100 0Z" fill="#E5FF3B"/>
<path d="M200 200C181.785 200 164.709 195.129 150 186.62C179.89 169.33 200 137.014 200 100C200 62.9864 179.889 30.6715 150 13.3809C164.709 4.87194 181.785 0 200 0C255.228 0 300 44.7715 300 100C300 155.228 255.228 200 200 200Z" fill="#3A46FF"/>
<path d="M150 13.3799C179.89 30.6705 200 62.9862 200 100C200 137.014 179.889 169.329 150 186.619C120.111 169.329 100 137.014 100 100C100 62.9862 120.11 30.6705 150 13.3799Z" fill="#39E06F"/>
</g>
<defs>
<clipPath id="clip0_60_2">
<rect width="300" height="200" fill="white"/>
</clipPath>
</defs>
</svg>
